<svg width="44" height="44" viewBox="0 0 44 44" fill="none" xmlns="http://www.w3.org/2000/svg">
<path d="M13.5698 10.744C16.3876 11.3737 19.2798 11.6933 22.167 11.6933C25.0542 11.6933 27.9465 11.3742 30.7535 10.7463C31.0393 10.6887 31.2341 10.4239 31.2041 10.1342C30.8004 6.26332 28.0436 3.08757 24.5314 2.07905V1.40709C24.5314 1.09538 24.2784 0.842407 23.9667 0.842407C23.655 0.842407 23.402 1.09538 23.402 1.40709V1.84019C22.9954 1.78034 22.5843 1.73968 22.1654 1.73968C21.7475 1.73968 21.3375 1.78034 20.9315 1.83963V1.40709C20.9315 1.09538 20.6786 0.842407 20.3669 0.842407C20.0551 0.842407 19.8022 1.09538 19.8022 1.40709V2.07849C16.291 3.08644 13.5331 6.26275 13.1299 10.1342C13.1 10.4188 13.2903 10.6814 13.5698 10.744ZM19.8022 3.26205V5.01086C19.8022 5.32256 20.0551 5.57554 20.3669 5.57554C20.6786 5.57554 20.9315 5.32256 20.9315 5.01086V2.97858C21.3364 2.91026 21.7486 2.86847 22.1682 2.86847C22.5866 2.86847 22.9977 2.91026 23.402 2.97802V5.01029C23.402 5.322 23.655 5.57497 23.9667 5.57497C24.2784 5.57497 24.5314 5.322 24.5314 5.01029V3.26149C27.3135 4.18756 29.5033 6.68287 30.0127 9.75077C24.8623 10.8293 19.4927 10.8327 14.3203 9.75077C14.8302 6.68343 17.0194 4.18869 19.8022 3.26205ZM25.663 9.13583C24.5178 9.3922 23.341 9.52207 22.1665 9.52207C20.9931 9.52207 19.8169 9.3922 18.6706 9.13583C18.3662 9.06751 18.1748 8.76597 18.2425 8.46161C18.3109 8.15725 18.6147 7.96695 18.9162 8.03358C21.0507 8.51017 23.2891 8.5096 25.4168 8.03358C25.7217 7.96638 26.0227 8.15725 26.091 8.46161C26.1593 8.76597 25.9673 9.06751 25.663 9.13583ZM12.7505 13.2958C12.7612 12.9293 12.794 11.8135 13.5947 11.5114C14.3858 11.2133 15.1933 12.0168 15.3469 12.1811C15.5598 12.4093 15.5479 12.7667 15.3203 12.9796C15.0922 13.1919 14.7348 13.1806 14.5219 12.9531C14.3655 12.7876 14.1311 12.6222 14.0063 12.5838C13.9679 12.6566 13.8934 12.8576 13.8793 13.3297C13.8217 15.2897 15.3407 15.8182 15.3559 15.8239C15.5343 15.8832 15.6716 16.0277 15.7218 16.209L15.7461 16.2976C15.7557 16.3315 15.7613 16.3665 15.7647 16.4015C16.1967 21.5491 20.2646 23.2144 22.167 23.2144C24.0694 23.2144 28.1374 21.5491 28.5694 16.4015C28.5722 16.3671 28.5784 16.3327 28.5874 16.2993L28.6117 16.2107C28.6614 16.0289 28.7992 15.8837 28.9776 15.8239C29.0364 15.803 30.5107 15.2626 30.4543 13.3297C30.4407 12.8582 30.3662 12.6577 30.3278 12.5843C30.2024 12.6238 29.9613 12.7938 29.8117 12.9536C29.5988 13.1817 29.2413 13.193 29.0132 12.9802C28.7851 12.7673 28.7738 12.4098 28.9867 12.1817C29.1397 12.0168 29.9455 11.2127 30.7389 11.512C31.5396 11.8147 31.5723 12.9299 31.583 13.2964C31.6406 15.2456 30.4977 16.3304 29.6699 16.7522C29.1058 21.9851 24.9735 24.3426 22.167 24.3426C19.36 24.3426 15.2277 21.9856 14.6642 16.7528C13.8364 16.3298 12.6929 15.2451 12.7505 13.2958ZM23.0299 13.1868C22.865 13.1868 22.7086 13.2585 22.6013 13.3839C22.5725 13.4178 22.5595 13.4596 22.5397 13.4985H21.7938C21.774 13.4596 21.761 13.4178 21.7322 13.3839C21.625 13.2591 21.4685 13.1868 21.3037 13.1868H16.8529C16.7015 13.1868 16.5564 13.2478 16.4502 13.3557C16.3441 13.4635 16.2859 13.6098 16.2882 13.7611C16.2978 14.2891 16.3881 16.0599 17.1646 16.6907C17.6598 17.0933 18.4334 17.3434 19.1839 17.3434C19.901 17.3434 20.5024 17.1164 20.8785 16.7042C21.2856 16.2581 21.5566 15.3224 21.7114 14.6273H22.6222C22.7769 15.3224 23.0479 16.2581 23.4551 16.7042C23.8317 17.1164 24.4337 17.3434 25.1502 17.3434C25.9001 17.3434 26.6737 17.0933 27.1695 16.6907C27.9454 16.0599 28.0363 14.2891 28.0459 13.7611C28.0482 13.6098 27.99 13.4635 27.8838 13.3557C27.7777 13.2478 27.6326 13.1868 27.4812 13.1868H23.0299ZM20.0444 15.943C19.8869 16.1158 19.5735 16.2141 19.1839 16.2141C18.6965 16.2141 18.1714 16.0537 17.8772 15.8143C17.6824 15.6562 17.5231 14.9882 17.4537 14.3156H20.6227C20.4764 14.9786 20.2567 15.7104 20.0444 15.943ZM26.4569 15.8148C26.1627 16.0537 25.6376 16.2146 25.1502 16.2146C24.7606 16.2146 24.4466 16.1158 24.2891 15.943C24.0774 15.7104 23.8571 14.9786 23.7114 14.3168H26.8804C26.811 14.9887 26.6517 15.6562 26.4569 15.8148ZM40.5196 24.5431C34.8932 26.3822 29.0493 27.3619 23.1298 27.4579V41.0616C23.1298 41.3733 22.8768 41.6263 22.5651 41.6263C22.2534 41.6263 22.0005 41.3733 22.0005 41.0616V29.5021C17.6976 29.4913 13.432 29.0102 9.25343 28.0729C9.20882 28.0689 9.16478 28.0593 9.12129 28.0441C7.34312 27.6409 5.57851 27.1643 3.83647 26.5957L4.15439 30.9635C4.17698 31.2746 3.9432 31.5451 3.63206 31.5677C3.61794 31.5682 3.60439 31.5688 3.59028 31.5688C3.29664 31.5688 3.04931 31.3424 3.02729 31.0453L2.64839 25.8322C2.63484 25.6431 2.71672 25.4595 2.86692 25.3438C3.01713 25.2275 3.21533 25.1953 3.39433 25.2568C5.25551 25.8943 7.14436 26.4223 9.04958 26.8656C10.2507 24.9542 12.2016 23.5029 14.8624 22.5452L14.8274 21.9546C14.8087 21.6434 15.0465 21.3764 15.3576 21.3577C15.6659 21.3306 15.9364 21.5763 15.9545 21.888L16.0996 24.3341L17.7868 23.7299C18.0822 23.6249 18.404 23.7774 18.5091 24.071C18.6141 24.3646 18.4616 24.6882 18.168 24.7932L15.7709 25.6521C15.7088 25.6741 15.6445 25.6854 15.5806 25.6854C15.4717 25.6854 15.3627 25.6538 15.2695 25.5917C15.121 25.4934 15.0278 25.3314 15.0171 25.1541L14.9324 23.7237C12.8058 24.5363 11.2467 25.6566 10.2151 27.1327C14.0848 27.9492 18.028 28.3614 22.001 28.3727V26.9006C22.001 26.59 22.2512 26.3382 22.5618 26.3359C25.8967 26.3133 29.2069 25.996 32.4696 25.4065C31.6463 24.7464 30.6231 24.167 29.4751 23.7186L29.3898 25.1541C29.3791 25.3314 29.2859 25.494 29.1374 25.5917C29.0437 25.6532 28.9353 25.6854 28.8263 25.6854C28.7619 25.6854 28.6975 25.6741 28.636 25.6521L26.2395 24.7932C25.9459 24.6882 25.7934 24.3646 25.8984 24.071C26.0035 23.7774 26.3248 23.6238 26.6207 23.7299L28.3074 24.3341L28.4525 21.888C28.4705 21.5763 28.7371 21.3312 29.0493 21.3577C29.3605 21.3764 29.5982 21.6434 29.5796 21.9546L29.5446 22.5419C31.2764 23.1709 32.7886 24.0795 33.8655 25.1388C36.2558 24.6458 38.6178 24.0061 40.9403 23.211C41.1171 23.1511 41.313 23.1816 41.4621 23.2934C41.6117 23.4058 41.6959 23.5848 41.6868 23.7717L41.3283 31.357C41.3136 31.6687 41.0521 31.907 40.7376 31.8946C40.4259 31.8799 40.1854 31.6151 40.2 31.304L40.5196 24.5431ZM43.2482 33.3176C42.7439 32.8111 41.9545 32.5643 40.8347 32.5643C39.715 32.5643 38.925 32.8111 38.4213 33.3176C37.7471 33.9958 37.7522 34.9473 37.7567 35.7869L37.7572 39.7058C37.7572 41.4027 39.1379 42.7833 40.8347 42.7833C42.5316 42.7833 43.9122 41.4027 43.9122 39.7058L43.9128 35.7869C43.9173 34.9473 43.923 33.9958 43.2482 33.3176ZM42.784 35.7807L42.7834 39.7058C42.7834 40.7798 41.9093 41.6539 40.8353 41.6539C40.0436 41.6539 39.3637 41.1774 39.0588 40.4975H40.2091C40.5208 40.4975 40.7737 40.2445 40.7737 39.9328C40.7737 39.6211 40.5208 39.3681 40.2091 39.3681H38.8866V38.415H40.2091C40.5208 38.415 40.7737 38.162 40.7737 37.8503C40.7737 37.5386 40.5208 37.2856 40.2091 37.2856H38.886V36.2573H40.2091C40.5208 36.2573 40.7737 36.0043 40.7737 35.6926C40.7737 35.3809 40.5208 35.128 40.2091 35.128H38.8962C38.9193 34.7095 38.9928 34.3447 39.222 34.1144C39.4993 33.8354 40.0419 33.6937 40.8347 33.6937C41.6275 33.6937 42.1702 33.8348 42.4475 34.1144C42.7908 34.4588 42.7874 35.1009 42.784 35.7807ZM3.84777 32.1928C2.64896 32.1928 1.80589 32.4548 1.26945 32.994C0.553438 33.714 0.559085 34.7333 0.563602 35.6322L0.564167 39.8713C0.564167 41.6816 2.03685 43.1543 3.8472 43.1543C5.65756 43.1543 7.13024 41.6816 7.13024 39.8713L7.13081 35.6317C7.13589 34.7327 7.14153 33.7134 6.42496 32.994C5.88964 32.4548 5.04601 32.1928 3.84777 32.1928ZM3.84777 42.0249C2.66025 42.0249 1.69409 41.0588 1.69409 39.8713L1.69352 35.626C1.68957 34.8812 1.68562 34.177 2.07016 33.7902C2.37904 33.4797 2.97704 33.3216 3.84777 33.3216C4.7185 33.3216 5.3165 33.4791 5.62537 33.7902C5.89303 34.059 5.97096 34.4825 5.99354 34.9653H4.52482C4.21311 34.9653 3.96014 35.2183 3.96014 35.53C3.96014 35.8417 4.21311 36.0947 4.52482 36.0947H6.00201V37.2997H4.52482C4.21311 37.2997 3.96014 37.5527 3.96014 37.8644C3.96014 38.1761 4.21311 38.4291 4.52482 38.4291H6.00145V39.5528H4.52482C4.21311 39.5528 3.96014 39.8058 3.96014 40.1175C3.96014 40.4292 4.21311 40.6821 4.52482 40.6821H5.83995C5.51921 41.4682 4.74843 42.0249 3.84777 42.0249Z" fill="white"/>
</svg>
