<svg width="45" height="45" viewBox="0 0 45 45" fill="none" xmlns="http://www.w3.org/2000/svg">
<g style="mix-blend-mode:plus-lighter">
<path d="M19.1637 24.715C18.8988 24.715 18.682 24.9317 18.682 25.1967V34.3485H15.8402C15.5752 34.3485 15.3585 34.5653 15.3585 34.8302V39.7048C14.3951 39.9264 13.6726 40.7837 13.6726 41.8145C13.6726 43.009 14.6456 43.982 15.8402 43.982C17.0347 43.982 18.0077 43.009 18.0077 41.8145C18.0077 40.7837 17.2852 39.9264 16.3219 39.7048V35.3119H19.1637C19.4287 35.3119 19.6454 35.0951 19.6454 34.8302V25.1967C19.6454 24.9317 19.4287 24.715 19.1637 24.715ZM17.0444 41.8145C17.0444 42.1339 16.9175 42.4402 16.6916 42.666C16.4658 42.8918 16.1595 43.0187 15.8402 43.0187C15.5208 43.0187 15.2145 42.8918 14.9887 42.666C14.7628 42.4402 14.6359 42.1339 14.6359 41.8145C14.6359 41.4952 14.7628 41.1889 14.9887 40.963C15.2145 40.7372 15.5208 40.6103 15.8402 40.6103C16.1595 40.6103 16.4658 40.7372 16.6916 40.963C16.9175 41.1889 17.0444 41.4952 17.0444 41.8145Z" fill="#F8FBFA"/>
<path d="M9.57911 39.7049V32.4219H15.8409C16.1058 32.4219 16.3226 32.2052 16.3226 31.9402V25.1968C16.3226 24.9318 16.1058 24.7151 15.8409 24.7151C15.576 24.7151 15.3592 24.9318 15.3592 25.1968V31.4586H5.18622C4.96465 30.4952 4.10727 29.7727 3.07648 29.7727C1.88192 29.7727 0.908936 30.7457 0.908936 31.9402C0.908936 33.1348 1.88192 34.1078 3.07648 34.1078C4.10727 34.1078 4.96465 33.3853 5.18622 32.4219H8.61579V39.7049C7.65241 39.9265 6.92989 40.7838 6.92989 41.8146C6.92989 43.0092 7.90288 43.9822 9.09741 43.9822C10.292 43.9822 11.265 43.0092 11.265 41.8146C11.265 40.7838 10.5424 39.9265 9.57911 39.7049ZM3.07648 33.1444C2.75711 33.1444 2.45082 33.0176 2.22499 32.7918C1.99916 32.5659 1.87229 32.2597 1.87229 31.9402C1.87229 31.6209 1.99916 31.3146 2.22499 31.0888C2.45082 30.863 2.75711 30.7361 3.07648 30.7361C3.39585 30.7361 3.70214 30.863 3.92797 31.0888C4.1538 31.3146 4.28067 31.6209 4.28067 31.9402C4.28067 32.2597 4.1538 32.5659 3.92797 32.7918C3.70214 33.0176 3.39585 33.1444 3.07648 33.1444ZM9.09741 43.0188C8.77806 43.0188 8.47179 42.892 8.24593 42.6661C8.02011 42.4403 7.89325 42.134 7.89325 41.8146C7.89325 41.4953 8.02011 41.189 8.24593 40.9631C8.47179 40.7373 8.77806 40.6104 9.09741 40.6104C9.41684 40.6104 9.72311 40.7373 9.9489 40.9631C10.1748 41.189 10.3016 41.4953 10.3016 41.8146C10.3016 42.134 10.1748 42.4403 9.9489 42.6661C9.72311 42.892 9.41684 43.0188 9.09741 43.0188Z" fill="#F8FBFA"/>
<path d="M42.0891 29.772C41.0584 29.772 40.2009 30.4946 39.9794 31.4579H35.1048V28.5678H36.9641C40.9861 28.5678 44.2566 25.3262 44.2566 21.3427C44.2566 18.3997 42.4696 15.8709 39.9168 14.7437C39.8638 7.83649 34.1174 1.56506 27.5665 1.56506C23.3134 1.56506 19.3443 3.76151 17.0949 7.3211C15.9655 6.41828 14.5622 5.92729 13.1163 5.92905C9.45072 5.92905 6.70998 9.79212 6.6859 13.1927C3.59353 14.3295 1.38745 17.2243 1.38745 20.6202C1.38745 24.7963 4.72066 28.221 8.94012 28.5389C8.98831 28.5582 9.04127 28.5678 9.09431 28.5678H12.4853C12.7502 28.5678 12.967 28.3511 12.967 28.0862C12.967 27.8212 12.7502 27.6045 12.4853 27.6045H9.57593C5.59249 27.6045 2.35081 24.4736 2.35081 20.6202C2.35081 16.7668 5.59249 13.6359 9.57593 13.6359C9.84088 13.6359 10.0576 13.4191 10.0576 13.1542C10.0576 12.8893 9.84088 12.6725 9.57593 12.6725C8.91606 12.6725 8.28025 12.7544 7.6637 12.8989C7.8371 9.48383 10.6164 6.8924 13.1163 6.8924C14.5565 6.8924 15.9148 7.45115 16.9408 8.46746C17.1287 8.65532 17.4369 8.65532 17.62 8.46746C17.7259 8.36154 17.7645 8.21704 17.75 8.08215C19.7971 4.65743 23.5446 2.53323 27.5618 2.53323C33.4912 2.53323 38.703 8.14479 38.9438 14.4018C38.3128 14.2235 37.6481 14.1224 36.9592 14.1224C36.6944 14.1224 36.4776 14.3391 36.4776 14.6041C36.4776 14.8689 36.6944 15.0857 36.9592 15.0857C40.4514 15.0857 43.2885 17.8939 43.2885 21.3475C43.2885 24.8011 40.4466 27.6093 36.9592 27.6093H32.6916C32.4267 27.6093 32.2099 27.8261 32.2099 28.091C32.2099 28.3559 32.4267 28.5727 32.6916 28.5727H34.1367V31.9444C34.1367 32.2093 34.3534 32.4261 34.6183 32.4261H39.9746C40.1961 33.3895 41.0535 34.112 42.0843 34.112C43.2789 34.112 44.2519 33.139 44.2519 31.9444C44.2519 30.7498 43.2789 29.7769 42.0843 29.7769L42.0891 29.772ZM42.0891 33.1438C41.7697 33.1438 41.4635 33.0169 41.2376 32.7911C41.0118 32.5653 40.885 32.2589 40.885 31.9396C40.885 31.6202 41.0118 31.3139 41.2376 31.0881C41.4635 30.8622 41.7697 30.7354 42.0891 30.7354C42.4085 30.7354 42.7148 30.8622 42.9406 31.0881C43.1664 31.3139 43.2933 31.6202 43.2933 31.9396C43.2933 32.2589 43.1664 32.5653 42.9406 32.7911C42.7148 33.0169 42.4085 33.1438 42.0891 33.1438Z" fill="#F8FBFA"/>
<path d="M23.0679 39.7048V25.1967C23.0679 24.9317 22.8512 24.715 22.5862 24.715C22.3213 24.715 22.1045 24.9317 22.1045 25.1967V39.7048C21.1412 39.9264 20.4187 40.7837 20.4187 41.8145C20.4187 43.009 21.3917 43.982 22.5862 43.982C23.7808 43.982 24.7538 43.009 24.7538 41.8145C24.7538 40.7837 24.0313 39.9264 23.0679 39.7048ZM22.5862 43.0187C22.2669 43.0187 21.9605 42.8918 21.7348 42.666C21.5089 42.4402 21.382 42.1339 21.382 41.8145C21.382 41.4952 21.5089 41.1889 21.7348 40.963C21.9605 40.7372 22.2669 40.6103 22.5862 40.6103C22.9056 40.6103 23.2119 40.7372 23.4377 40.963C23.6636 41.1889 23.7905 41.4952 23.7905 41.8145C23.7905 42.1339 23.6636 42.4402 23.4377 42.666C23.2119 42.8918 22.9056 43.0187 22.5862 43.0187ZM29.8114 39.7048V36.7569C29.8114 36.5835 29.7198 36.4245 29.5706 36.3378L26.4396 34.5508V25.1967C26.4396 24.9317 26.2229 24.715 25.958 24.715C25.6931 24.715 25.4763 24.9317 25.4763 25.1967V34.8302C25.4763 35.0036 25.5678 35.1625 25.7171 35.2492L28.8481 37.0363V39.7048C27.8847 39.9264 27.1621 40.7837 27.1621 41.8145C27.1621 43.009 28.1352 43.982 29.3297 43.982C30.5243 43.982 31.4972 43.009 31.4972 41.8145C31.4972 40.7837 30.7747 39.9264 29.8114 39.7048ZM29.3297 43.0187C29.0103 43.0187 28.7041 42.8918 28.4782 42.666C28.2524 42.4402 28.1255 42.1339 28.1255 41.8145C28.1255 41.4952 28.2524 41.1889 28.4782 40.963C28.7041 40.7372 29.0103 40.6103 29.3297 40.6103C29.6491 40.6103 29.9554 40.7372 30.1812 40.963C30.407 41.1889 30.5339 41.4952 30.5339 41.8145C30.5339 42.1339 30.407 42.4402 30.1812 42.666C29.9554 42.8918 29.6491 43.0187 29.3297 43.0187Z" fill="#F8FBFA"/>
<path d="M36.5524 39.7051V36.6561C36.5524 36.473 36.4464 36.3044 36.2826 36.2226L29.8089 33.082V25.197C29.8089 24.9321 29.5921 24.7153 29.3273 24.7153C29.0623 24.7153 28.8456 24.9321 28.8456 25.197V33.3855C28.8456 33.5685 28.9516 33.7371 29.1153 33.819L35.589 36.9595V39.7051C34.6257 39.9266 33.9032 40.784 33.9032 41.8148C33.9032 43.0094 34.8762 43.9824 36.0707 43.9824C37.2652 43.9824 38.2383 43.0094 38.2383 41.8148C38.2383 40.784 37.5157 39.9266 36.5524 39.7051ZM36.0707 43.019C35.7514 43.019 35.4451 42.8921 35.2192 42.6663C34.9934 42.4405 34.8665 42.1342 34.8665 41.8148C34.8665 41.4954 34.9934 41.1891 35.2192 40.9634C35.4451 40.7375 35.7514 40.6106 36.0707 40.6106C36.3901 40.6106 36.6964 40.7375 36.9222 40.9634C37.148 41.1891 37.2749 41.4954 37.2749 41.8148C37.2749 42.1342 37.148 42.4405 36.9222 42.6663C36.6964 42.8921 36.3901 43.019 36.0707 43.019ZM15.8403 15.0818C16.6351 15.0818 17.2853 14.4315 17.2853 13.6368V12.1917C17.2853 11.397 16.6351 10.7467 15.8403 10.7467C15.0455 10.7467 14.3953 11.397 14.3953 12.1917V13.6368C14.3953 14.4315 15.0455 15.0818 15.8403 15.0818ZM15.3586 12.1917C15.3586 11.9268 15.5753 11.71 15.8403 11.71C16.1052 11.71 16.322 11.9268 16.322 12.1917V13.6368C16.322 13.9016 16.1052 14.1184 15.8403 14.1184C15.5753 14.1184 15.3586 13.9016 15.3586 13.6368V12.1917ZM14.3953 18.9352C14.3953 19.7299 15.0455 20.3802 15.8403 20.3802C16.6351 20.3802 17.2853 19.7299 17.2853 18.9352V17.4902C17.2853 16.6954 16.6351 16.0451 15.8403 16.0451C15.0455 16.0451 14.3953 16.6954 14.3953 17.4902V18.9352ZM15.3586 17.4902C15.3586 17.2252 15.5753 17.0085 15.8403 17.0085C16.1052 17.0085 16.322 17.2252 16.322 17.4902V18.9352C16.322 19.2001 16.1052 19.4169 15.8403 19.4169C15.5753 19.4169 15.3586 19.2001 15.3586 18.9352V17.4902ZM21.1387 17.4902V18.9352C21.1387 19.7299 21.789 20.3802 22.5837 20.3802C23.3785 20.3802 24.0288 19.7299 24.0288 18.9352V17.4902C24.0288 16.6954 23.3785 16.0451 22.5837 16.0451C21.789 16.0451 21.1387 16.6954 21.1387 17.4902ZM23.0654 17.4902V18.9352C23.0654 19.2001 22.8487 19.4169 22.5837 19.4169C22.3189 19.4169 22.1021 19.2001 22.1021 18.9352V17.4902C22.1021 17.2252 22.3189 17.0085 22.5837 17.0085C22.8487 17.0085 23.0654 17.2252 23.0654 17.4902ZM27.8822 17.4902V18.9352C27.8822 19.7299 28.5325 20.3802 29.3273 20.3802C30.122 20.3802 30.7723 19.7299 30.7723 18.9352V17.4902C30.7723 16.6954 30.122 16.0451 29.3273 16.0451C28.5325 16.0451 27.8822 16.6954 27.8822 17.4902ZM29.8089 17.4902V18.9352C29.8089 19.2001 29.5921 19.4169 29.3273 19.4169C29.0623 19.4169 28.8456 19.2001 28.8456 18.9352V17.4902C28.8456 17.2252 29.0623 17.0085 29.3273 17.0085C29.5921 17.0085 29.8089 17.2252 29.8089 17.4902ZM20.6571 10.7467C19.8623 10.7467 19.2121 11.397 19.2121 12.1917V13.6368C19.2121 14.4315 19.8623 15.0818 20.6571 15.0818C21.4518 15.0818 22.1021 14.4315 22.1021 13.6368V12.1917C22.1021 11.397 21.4518 10.7467 20.6571 10.7467ZM21.1387 13.6368C21.1387 13.9016 20.922 14.1184 20.6571 14.1184C20.3921 14.1184 20.1754 13.9016 20.1754 13.6368V12.1917C20.1754 11.9268 20.3921 11.71 20.6571 11.71C20.922 11.71 21.1387 11.9268 21.1387 12.1917V13.6368ZM27.8822 10.7467C27.0875 10.7467 26.4372 11.397 26.4372 12.1917V13.6368C26.4372 14.4315 27.0875 15.0818 27.8822 15.0818C28.677 15.0818 29.3273 14.4315 29.3273 13.6368V12.1917C29.3273 11.397 28.677 10.7467 27.8822 10.7467ZM28.3639 13.6368C28.3639 13.9016 28.1471 14.1184 27.8822 14.1184C27.6173 14.1184 27.4005 13.9016 27.4005 13.6368V12.1917C27.4005 11.9268 27.6173 11.71 27.8822 11.71C28.1471 11.71 28.3639 11.9268 28.3639 12.1917V13.6368ZM18.2487 15.101C18.5136 15.101 18.7304 14.8843 18.7304 14.6194V11.2283C18.7304 10.9635 18.5136 10.7467 18.2487 10.7467C17.9838 10.7467 17.767 10.9635 17.767 11.2283V14.6194C17.767 14.8843 17.9838 15.101 18.2487 15.101ZM17.767 19.8985C17.767 20.1635 17.9838 20.3802 18.2487 20.3802C18.5136 20.3802 18.7304 20.1635 18.7304 19.8985V16.5075C18.7304 16.2426 18.5136 16.0258 18.2487 16.0258C17.9838 16.0258 17.767 16.2426 17.767 16.5075V19.8985ZM20.6571 19.9178V16.5268C20.6571 16.2619 20.4403 16.0451 20.1754 16.0451C19.9104 16.0451 19.6937 16.2619 19.6937 16.5268V19.9178C19.6937 20.1827 19.9104 20.3995 20.1754 20.3995C20.4403 20.3995 20.6571 20.1827 20.6571 19.9178ZM25.4738 16.5075C25.4738 16.2426 25.257 16.0258 24.9922 16.0258C24.7272 16.0258 24.5105 16.2426 24.5105 16.5075V19.8985C24.5105 20.1635 24.7272 20.3802 24.9922 20.3802C25.257 20.3802 25.4738 20.1635 25.4738 19.8985V16.5075ZM26.4372 19.9178C26.4372 20.1827 26.654 20.3995 26.9188 20.3995C27.1838 20.3995 27.4005 20.1827 27.4005 19.9178V16.5268C27.4005 16.2619 27.1838 16.0451 26.9188 16.0451C26.654 16.0451 26.4372 16.2619 26.4372 16.5268V19.9178ZM23.5471 14.6194V11.2283C23.5471 10.9635 23.3304 10.7467 23.0654 10.7467C22.8005 10.7467 22.5837 10.9635 22.5837 11.2283V14.6194C22.5837 14.8843 22.8005 15.101 23.0654 15.101C23.3304 15.101 23.5471 14.8843 23.5471 14.6194ZM30.7723 14.6194V11.2283C30.7723 10.9635 30.5555 10.7467 30.2906 10.7467C30.0256 10.7467 29.8089 10.9635 29.8089 11.2283V14.6194C29.8089 14.8843 30.0256 15.101 30.2906 15.101C30.5555 15.101 30.7723 14.8843 30.7723 14.6194ZM24.9922 15.101C25.257 15.101 25.4738 14.8843 25.4738 14.6194V11.2283C25.4738 10.9635 25.257 10.7467 24.9922 10.7467C24.7272 10.7467 24.5105 10.9635 24.5105 11.2283V14.6194C24.5105 14.8843 24.7272 15.101 24.9922 15.101Z" fill="#F8FBFA"/>
</g>
</svg>
