<svg width="44" height="44" viewBox="0 0 44 44" fill="none" xmlns="http://www.w3.org/2000/svg">
<path d="M12.893 9.08354C17.1545 7.16117 20.3041 4.67975 22.0012 1.90767C22.0272 1.86541 22.0642 1.84399 22.1116 1.84399C22.1589 1.84399 22.196 1.86541 22.2219 1.90767C23.476 3.95591 25.489 5.82271 28.2053 7.45624C30.8625 9.05435 34.0587 10.3501 37.7047 11.3073C37.7919 11.3302 37.8544 11.4045 37.8604 11.4922C37.9087 12.2035 37.9332 12.9517 37.9332 13.7163C37.9332 16.5513 37.1881 19.7316 35.7186 23.1689C35.6526 23.3233 35.6506 23.4976 35.7132 23.6535C35.7757 23.8093 35.8975 23.934 36.0519 24C36.2795 24.0901 36.6889 24.0559 36.883 23.6667C38.4202 20.0711 39.1995 16.7233 39.1995 13.7163C39.1995 12.9233 39.174 12.1461 39.1238 11.4064C39.081 10.7756 38.64 10.2435 38.0262 10.0826C30.9728 8.23061 25.6061 5.01005 23.3018 1.24648C23.0454 0.827704 22.6004 0.577759 22.1115 0.577759C21.6225 0.577759 21.1776 0.827704 20.9212 1.24648C19.3573 3.80097 16.4011 6.11177 12.3722 7.92918C12.2191 7.99825 12.0997 8.12534 12.0404 8.28242C11.981 8.43942 11.9863 8.61369 12.0553 8.76679C12.1245 8.91975 12.2516 9.03903 12.4086 9.09842C12.5657 9.15781 12.7399 9.15247 12.893 9.08354Z" fill="#FBFBFB"/>
<path d="M28.566 26.3777V21.2671C28.566 20.1201 27.6817 19.1765 26.559 19.0807V18.1104C26.559 15.6566 24.5628 13.6603 22.1089 13.6603C19.655 13.6603 17.6587 15.6565 17.6587 18.1104V19.0808C16.5361 19.1765 15.6517 20.1201 15.6517 21.2671V26.3778C15.6517 27.588 16.6364 28.5727 17.8466 28.5727H26.3712C27.5815 28.5726 28.566 27.588 28.566 26.3777ZM22.109 14.9266C23.8645 14.9266 25.2928 16.3549 25.2928 18.1104V19.0723H18.925V18.1104C18.925 16.3548 20.3534 14.9266 22.109 14.9266ZM16.918 26.3777V21.2671C16.918 20.7551 17.3346 20.3385 17.8466 20.3385H26.3712C26.8832 20.3385 27.2998 20.7551 27.2998 21.2671V26.3777C27.2998 26.8897 26.8832 27.3063 26.3712 27.3063H17.8466C17.3346 27.3064 16.918 26.8898 16.918 26.3777Z" fill="#FBFBFB"/>
<path d="M22.0624 22.2225C21.4214 22.2631 20.8977 22.7797 20.849 23.4201C20.8055 23.9921 21.1321 24.4931 21.6141 24.7098V25.5256C21.6141 25.5619 21.6213 25.598 21.6352 25.6316C21.6491 25.6652 21.6694 25.6957 21.6952 25.7215C21.7209 25.7472 21.7515 25.7675 21.785 25.7815C21.8186 25.7954 21.8547 25.8025 21.891 25.8025H22.4032C22.4396 25.8025 22.4756 25.7954 22.5092 25.7815C22.5428 25.7675 22.5734 25.7472 22.5991 25.7215C22.6248 25.6957 22.6452 25.6652 22.6591 25.6316C22.673 25.598 22.6802 25.5619 22.6802 25.5256V24.7098C23.1334 24.506 23.4492 24.051 23.4492 23.5219C23.4492 22.7747 22.82 22.1746 22.0624 22.2225Z" fill="#FBFBFB"/>
<path d="M42.0009 31.3052C41.2708 31.3052 40.6384 31.7315 40.3394 32.3485H32.0431C32.4148 31.7991 32.7781 31.2441 33.1329 30.6838H37.4518C37.7562 30.6838 38.0423 30.5653 38.2577 30.35L39.5478 29.0598H40.3053C40.588 29.7168 41.2416 30.1781 42.0009 30.1781C43.0185 30.1781 43.8462 29.3502 43.8462 28.3328C43.8462 27.3154 43.0185 26.4875 42.0009 26.4875C41.1711 26.4875 40.4676 27.0383 40.2364 27.7935H39.4954C39.1909 27.7935 38.9048 27.912 38.6895 28.1272L37.3993 29.4175H33.9129C34.4926 28.4497 35.0501 27.456 35.5718 26.443C35.6099 26.369 35.633 26.2883 35.6399 26.2055C35.6468 26.1226 35.6373 26.0392 35.6119 25.96C35.5865 25.8808 35.5459 25.8074 35.4921 25.7439C35.4384 25.6805 35.3727 25.6282 35.2988 25.5902C35.2248 25.5521 35.1441 25.529 35.0613 25.522C34.9784 25.5152 34.895 25.5247 34.8158 25.5501C34.7366 25.5754 34.6632 25.6161 34.5997 25.6699C34.5363 25.7235 34.484 25.7893 34.446 25.8632C30.4776 33.569 24.2103 40.3345 22.384 42.2246C22.3117 42.2995 22.2147 42.3407 22.1108 42.3407C22.0071 42.3407 21.91 42.2995 21.8377 42.2246C20.3087 40.6422 16.3723 36.3881 12.8528 31.0738C8.4975 24.4974 6.28914 18.6574 6.28914 13.7161C6.28914 12.9515 6.31361 12.2033 6.36196 11.4917C6.36788 11.4042 6.43045 11.33 6.51767 11.3071C7.69711 10.9974 8.84944 10.6452 9.9426 10.2607C10.1003 10.2044 10.2292 10.088 10.3013 9.93681C10.3733 9.78566 10.3825 9.61218 10.3269 9.45424C10.2713 9.29637 10.1555 9.1669 10.0047 9.09414C9.85395 9.02138 9.68055 9.01134 9.52232 9.06618C8.46152 9.4395 7.34235 9.7814 6.19609 10.0823C5.58223 10.2434 5.14119 10.7755 5.0986 11.406C5.0483 12.1458 5.02282 12.923 5.02282 13.716C5.02282 18.3019 6.80046 23.5746 10.3098 29.4174H6.82256L5.53236 28.1272C5.42676 28.0211 5.30116 27.9369 5.16284 27.8797C5.0245 27.8224 4.87619 27.7931 4.72647 27.7935H4.10517C3.87393 27.0383 3.17041 26.4875 2.34057 26.4875C1.32318 26.4875 0.495361 27.3153 0.495361 28.3327C0.495361 29.3501 1.32318 30.178 2.34065 30.178C3.09997 30.178 3.75353 29.7167 4.03633 29.0598H4.67415L5.96426 30.3499C6.06986 30.4561 6.19545 30.5403 6.33378 30.5976C6.47211 30.6548 6.62042 30.6841 6.77015 30.6837H11.0921C11.3236 31.0491 11.5587 31.4122 11.7973 31.773C11.9249 31.9654 12.0535 32.1572 12.183 32.3484H4.00221C3.70324 31.7315 3.07084 31.3051 2.34065 31.3051C1.32318 31.3052 0.495361 32.1329 0.495361 33.1504C0.495361 34.1678 1.32318 34.9956 2.34065 34.9956C3.19776 34.9956 3.92017 34.4081 4.12659 33.6147H13.0611C13.4662 34.1857 13.8792 34.7511 14.2997 35.3108H9.30527C9.04632 34.6043 8.36709 34.0987 7.57197 34.0987C6.55449 34.0987 5.72668 34.9265 5.72668 35.9439C5.72668 36.9615 6.55449 37.7893 7.57197 37.7893C8.36709 37.7893 9.04632 37.2837 9.30527 36.5772H15.2705C15.6841 37.1058 16.1038 37.6296 16.5297 38.1484H13.7914C13.6417 38.1481 13.4934 38.1773 13.355 38.2346C13.2168 38.2919 13.0911 38.3761 12.9855 38.4822L11.6954 39.7724H10.9462C10.6873 39.0659 10.0081 38.5602 9.21286 38.5602C8.19542 38.5602 7.36758 39.3881 7.36758 40.4055C7.36758 41.4229 8.19542 42.2508 9.21286 42.2508C10.008 42.2508 10.6873 41.7452 10.9462 41.0387H11.7478C11.8975 41.0391 12.0458 41.0098 12.1842 40.9525C12.3226 40.8952 12.4481 40.811 12.5538 40.7049L13.8438 39.4148H17.5894C19.0245 41.0975 20.2257 42.3785 20.9271 43.1046C21.2404 43.4286 21.6608 43.607 22.1109 43.607C22.5611 43.607 22.9815 43.4286 23.2947 43.1046C24.084 42.2878 25.2674 41.0206 26.64 39.413C26.6514 39.4137 26.6627 39.4148 26.6743 39.4148H30.3781L31.6684 40.7051C31.774 40.8112 31.8995 40.8953 32.0378 40.9526C32.1761 41.0099 32.3244 41.0391 32.4741 41.0387H33.2756C33.5346 41.7452 34.2139 42.2508 35.009 42.2508C36.0265 42.2508 36.8543 41.4229 36.8543 40.4055C36.8543 39.3881 36.0265 38.5602 35.009 38.5602C34.2139 38.5602 33.5346 39.0659 33.2756 39.7724H32.5265L31.2361 38.4819C31.1306 38.3759 31.005 38.2918 30.8666 38.2345C30.7283 38.1773 30.5801 38.1481 30.4305 38.1484H27.6991C28.1252 37.6297 28.5451 37.1059 28.9588 36.5772H34.9408C35.1997 37.2837 35.8789 37.7893 36.6741 37.7893C37.6915 37.7893 38.5194 36.9615 38.5194 35.9439C38.5194 34.9265 37.6915 34.0987 36.6741 34.0987C35.8789 34.0987 35.1997 34.6043 34.9408 35.3108H29.9295C30.3495 34.7511 30.7619 34.1857 31.1665 33.6147H40.215C40.4215 34.4081 41.1438 34.9956 42.0009 34.9956C43.0185 34.9956 43.8462 34.1678 43.8462 33.1504C43.8462 32.1329 43.0185 31.3052 42.0009 31.3052ZM42.0009 27.7538C42.3202 27.7538 42.5799 28.0135 42.5799 28.3327C42.5799 28.6519 42.3202 28.9116 42.0009 28.9116C41.6817 28.9116 41.4221 28.6519 41.4221 28.3327C41.4221 28.0135 41.6817 27.7538 42.0009 27.7538ZM2.34065 28.9116C2.02136 28.9116 1.76168 28.6519 1.76168 28.3327C1.76168 28.0135 2.02136 27.7538 2.34065 27.7538C2.65986 27.7538 2.91954 28.0135 2.91954 28.3327C2.91954 28.6519 2.65986 28.9116 2.34065 28.9116ZM2.34065 33.7293C2.18717 33.7292 2.04 33.6681 1.93146 33.5596C1.82292 33.4511 1.76186 33.3039 1.76168 33.1504C1.76184 32.9969 1.82289 32.8497 1.93143 32.7412C2.03998 32.6326 2.18715 32.5715 2.34065 32.5714C2.49414 32.5716 2.6413 32.6327 2.74982 32.7412C2.85835 32.8497 2.91938 32.9969 2.91954 33.1504C2.91936 33.3039 2.85831 33.451 2.74979 33.5595C2.64127 33.668 2.49413 33.7291 2.34065 33.7293ZM7.57197 36.523C7.25268 36.523 6.993 36.2633 6.993 35.9439C6.993 35.6247 7.25268 35.365 7.57197 35.365C7.89117 35.365 8.15084 35.6247 8.15084 35.9439C8.15084 36.2633 7.89117 36.523 7.57197 36.523ZM9.21301 40.9844C8.89373 40.9844 8.63406 40.7248 8.63406 40.4055C8.63406 40.0863 8.89373 39.8266 9.21301 39.8266C9.53236 39.8266 9.79203 40.0863 9.79203 40.4055C9.79203 40.7248 9.53236 40.9844 9.21301 40.9844ZM35.009 39.8266C35.3282 39.8266 35.5879 40.0863 35.5879 40.4055C35.5879 40.7248 35.3282 40.9844 35.009 40.9844C34.6897 40.9844 34.4299 40.7248 34.4299 40.4055C34.4299 40.0863 34.6897 39.8266 35.009 39.8266ZM36.6741 35.365C36.9934 35.365 37.2531 35.6247 37.2531 35.9439C37.2531 36.2633 36.9934 36.523 36.6741 36.523C36.3549 36.523 36.0953 36.2633 36.0953 35.9439C36.0953 35.6247 36.3549 35.365 36.6741 35.365ZM42.0009 33.7293C41.8475 33.7291 41.7003 33.668 41.5918 33.5595C41.4833 33.451 41.4223 33.3039 41.4221 33.1504C41.4221 32.8311 41.6817 32.5714 42.0009 32.5714C42.3202 32.5714 42.5799 32.8311 42.5799 33.1504C42.5799 33.4696 42.3202 33.7293 42.0009 33.7293Z" fill="#FBFBFB"/>
<path d="M23.1928 38.044C23.4493 37.4256 23.1558 36.7165 22.5374 36.4601C21.919 36.2036 21.2098 36.4971 20.9535 37.1155C20.6971 37.7339 20.9905 38.4431 21.6089 38.6995C22.2273 38.9558 22.9364 38.6624 23.1928 38.044Z" fill="#FBFBFB"/>
<path d="M22.2503 7.97357C22.911 7.86599 23.3594 7.24314 23.2518 6.58245C23.1442 5.92176 22.5214 5.4734 21.8606 5.58101C21.1999 5.68862 20.7515 6.31144 20.8591 6.97213C20.9667 7.63282 21.5895 8.08122 22.2503 7.97357Z" fill="#FBFBFB"/>
<path d="M9.47313 12.7599C8.80372 12.7599 8.26111 13.3025 8.26111 13.972C8.26111 14.6414 8.80372 15.184 9.47313 15.184C10.1425 15.184 10.6853 14.6414 10.6853 13.972C10.6852 13.3026 10.1425 12.7599 9.47313 12.7599ZM34.7454 12.7599C34.076 12.7599 33.5332 13.3025 33.5332 13.972C33.5332 14.6414 34.0758 15.184 34.7454 15.184C35.4147 15.184 35.9574 14.6414 35.9574 13.972C35.9574 13.3026 35.4147 12.7599 34.7454 12.7599Z" fill="#FBFBFB"/>
</svg>
