<svg width="44" height="44" viewBox="0 0 44 44" fill="none" xmlns="http://www.w3.org/2000/svg">
<g style="mix-blend-mode:hard-light">
<path d="M17.6666 30.4088C17.4967 30.4089 17.3324 30.3483 17.2032 30.2379L12.572 26.2944C12.493 26.2272 12.4297 26.1437 12.3862 26.0496C12.3427 25.9556 12.3202 25.8531 12.3202 25.7495C12.3202 25.6458 12.3427 25.5434 12.3862 25.4494C12.4297 25.3552 12.493 25.2717 12.572 25.2045L17.2032 21.261C17.3477 21.138 17.5352 21.0773 17.7244 21.0924C17.9135 21.1075 18.089 21.1971 18.2121 21.3416C18.4681 21.6428 18.4321 22.0944 18.131 22.3504L14.14 25.7493L18.131 29.148C18.2426 29.2429 18.3224 29.3699 18.3595 29.5116C18.3968 29.6533 18.3895 29.8031 18.3389 29.9406C18.2882 30.0781 18.1965 30.1967 18.0763 30.2804C17.9561 30.3642 17.8132 30.4091 17.6666 30.4088ZM26.8091 30.4088C26.6067 30.4088 26.4055 30.3234 26.2641 30.1568C26.141 30.0123 26.0804 29.8249 26.0955 29.6357C26.1107 29.4465 26.2003 29.2711 26.3448 29.148L30.3358 25.7493L26.3448 22.3504C26.2055 22.2259 26.1204 22.0519 26.1076 21.8654C26.0949 21.679 26.1556 21.495 26.2768 21.3528C26.3979 21.2105 26.5699 21.1213 26.756 21.1041C26.942 21.087 27.1274 21.1432 27.2725 21.2609L31.9038 25.2044C31.9827 25.2716 32.0461 25.3551 32.0896 25.4492C32.1331 25.5433 32.1555 25.6457 32.1555 25.7493C32.1555 25.853 32.1331 25.9554 32.0896 26.0495C32.0461 26.1436 31.9827 26.2271 31.9038 26.2943L27.2725 30.2378C27.1434 30.3482 26.979 30.4088 26.8091 30.4088ZM20.5984 33.3667C20.4918 33.3669 20.3866 33.3432 20.2902 33.2975C20.1939 33.2516 20.1091 33.185 20.0419 33.1022C19.9747 33.0195 19.9268 32.9228 19.9018 32.8192C19.8767 32.7155 19.8751 32.6076 19.8971 32.5033L22.7834 18.7991C22.8225 18.6134 22.9338 18.4508 23.0928 18.3471C23.2518 18.2434 23.4455 18.2072 23.6313 18.2463C23.8171 18.2855 23.9796 18.3968 24.0833 18.5558C24.187 18.7149 24.2232 18.9086 24.1841 19.0943L21.2978 32.7984C21.264 32.9589 21.1761 33.103 21.0487 33.2064C20.9214 33.3099 20.7625 33.3665 20.5984 33.3667Z" fill="#FAFCFB"/>
<path d="M39.108 40.8319H5.3679C2.71839 40.8319 0.5625 38.6764 0.5625 36.0265V7.38975C0.5625 4.74024 2.71839 2.58435 5.3679 2.58435H39.108C41.7575 2.58435 43.9134 4.74024 43.9134 7.38975V36.0265C43.9134 38.6764 41.7575 40.8319 39.108 40.8319ZM5.3679 4.01575C3.5076 4.01575 1.9939 5.52945 1.9939 7.38975V36.0265C1.9939 37.8868 3.5076 39.4005 5.3679 39.4005H39.108C40.9683 39.4005 42.482 37.8868 42.482 36.0265V7.38975C42.482 5.52945 40.9683 4.01575 39.108 4.01575H5.3679Z" fill="#FAFCFB"/>
<path d="M43.1993 14.0443H1.27987C1.09215 14.0411 0.913196 13.9643 0.781566 13.8305C0.649935 13.6966 0.576172 13.5164 0.576172 13.3286C0.576172 13.1409 0.649935 12.9606 0.781566 12.8267C0.913196 12.6929 1.09215 12.6161 1.27987 12.6129H43.1993C43.387 12.6161 43.566 12.6929 43.6977 12.8267C43.8293 12.9606 43.9031 13.1409 43.9031 13.3286C43.9031 13.5164 43.8293 13.6966 43.6977 13.8305C43.566 13.9643 43.387 14.0411 43.1993 14.0443ZM12.7926 10.6196C11.5441 10.6196 10.5277 9.6031 10.5277 8.35459C10.5277 7.10581 11.5441 6.08973 12.7926 6.08973C14.0414 6.08973 15.0575 7.10581 15.0575 8.35459C15.0575 9.6031 14.0414 10.6196 12.7926 10.6196ZM12.7926 7.52112C12.3332 7.52112 11.959 7.89493 11.959 8.35459C11.959 8.81426 12.3332 9.18816 12.7926 9.18816C13.2523 9.18816 13.6261 8.8144 13.6261 8.35459C13.6261 7.89486 13.2523 7.52112 12.7926 7.52112ZM5.83377 10.5976C4.58477 10.5976 3.56878 9.5815 3.56878 8.3327C3.56878 7.08384 4.58477 6.06775 5.83366 6.06775C7.08255 6.06775 8.09856 7.08384 8.09856 8.3327C8.09856 9.5815 7.08265 10.5976 5.83377 10.5976ZM5.83377 7.49914C5.37438 7.49914 5.00018 7.87333 5.00018 8.3327C5.00018 8.79244 5.37438 9.1662 5.83366 9.1662C6.29334 9.1662 6.66714 8.79244 6.66714 8.3327C6.66714 7.87333 6.29344 7.49914 5.83377 7.49914ZM19.7514 10.6411C18.5031 10.6411 17.487 9.62506 17.487 8.3762C17.487 7.1278 18.503 6.11171 19.7514 6.11171C21.0004 6.11171 22.0163 7.1277 22.0163 8.3762C22.0163 9.62506 21.0004 10.6411 19.7514 10.6411ZM19.7514 7.5427C19.2922 7.5427 18.9184 7.91653 18.9184 8.3762C18.9184 8.83586 19.2922 9.20976 19.7514 9.20976C20.2112 9.20976 20.5849 8.83586 20.5849 8.3762C20.5849 7.91653 20.2112 7.5427 19.7514 7.5427Z" fill="#FAFCFB"/>
</g>
</svg>
